<svg xmlns="http://www.w3.org/2000/svg" viewBox="0 0 1200 452" width="1200" height="452" font-family="system-ui, -apple-system, 'Segoe UI', Roboto, Helvetica, Arial, sans-serif">
  <title>The focus timer takes its colours from the block's tag: focus in the tag colour, breaks in calmer tones of the same hue</title>
  <defs>
    <pattern id="dots" width="18" height="18" patternUnits="userSpaceOnUse">
      <circle cx="2" cy="2" r="1.4" fill="#111" opacity="0.13"/>
    </pattern>
  </defs>
  <rect x="3" y="3" width="1194" height="446" fill="#fff7e0" stroke="#111" stroke-width="6"/>
  <rect x="6" y="6" width="1188" height="440" fill="url(#dots)"/>
  <rect x="40" y="34" width="356" height="38" fill="#111"/>
  <text x="54" y="60" font-size="20" font-weight="900" letter-spacing="1" fill="#fff">YOUR BLOCK, YOUR TIMER</text>
  <text x="414" y="60" font-size="16" font-weight="700" fill="#5b5647">every tag gets its own focus palette</text>
  <text x="300" y="104" font-size="13" font-weight="900" letter-spacing="1.5" fill="#5b5647">FOCUS</text>
  <text x="590" y="104" font-size="13" font-weight="900" letter-spacing="1.5" fill="#5b5647">SHORT BREAK</text>
  <text x="880" y="104" font-size="13" font-weight="900" letter-spacing="1.5" fill="#5b5647">LONG BREAK</text>
  <rect x="45" y="121" width="225" height="54" fill="#111"/>
  <rect x="40" y="116" width="225" height="54" fill="#b69cff" stroke="#111" stroke-width="3"/>
  <text x="56" y="151" font-size="22">🧠</text>
  <text x="92" y="150" font-size="19" font-weight="900" fill="#111">Deep Work</text>
  <rect x="305" y="121" width="270" height="54" fill="#111"/>
  <rect x="300" y="116" width="270" height="54" fill="#b69cff" stroke="#111" stroke-width="3"/>
  <text x="554" y="155" text-anchor="end" font-family="ui-monospace, 'SF Mono', Menlo, monospace" font-size="30" font-weight="900" letter-spacing="-1" fill="#111">25:00</text>
  <text x="314" y="149" font-family="ui-monospace, Menlo, monospace" font-size="12" font-weight="700" fill="#111" opacity="0.7">#b69cff</text>
  <rect x="595" y="121" width="270" height="54" fill="#111"/>
  <rect x="590" y="116" width="270" height="54" fill="#d1c8f5" stroke="#111" stroke-width="3"/>
  <text x="844" y="155" text-anchor="end" font-family="ui-monospace, 'SF Mono', Menlo, monospace" font-size="30" font-weight="900" letter-spacing="-1" fill="#111">5:00</text>
  <text x="604" y="149" font-family="ui-monospace, Menlo, monospace" font-size="12" font-weight="700" fill="#111" opacity="0.7">#d1c8f5</text>
  <rect x="885" y="121" width="280" height="54" fill="#111"/>
  <rect x="880" y="116" width="280" height="54" fill="#e1dbf5" stroke="#111" stroke-width="3"/>
  <text x="1144" y="155" text-anchor="end" font-family="ui-monospace, 'SF Mono', Menlo, monospace" font-size="30" font-weight="900" letter-spacing="-1" fill="#111">15:00</text>
  <text x="894" y="149" font-family="ui-monospace, Menlo, monospace" font-size="12" font-weight="700" fill="#111" opacity="0.7">#e1dbf5</text>
  <rect x="45" y="193" width="225" height="54" fill="#111"/>
  <rect x="40" y="188" width="225" height="54" fill="#4d96ff" stroke="#111" stroke-width="3"/>
  <text x="56" y="223" font-size="22">🗣️</text>
  <text x="92" y="222" font-size="19" font-weight="900" fill="#111">Meeting</text>
  <rect x="305" y="193" width="270" height="54" fill="#111"/>
  <rect x="300" y="188" width="270" height="54" fill="#4d96ff" stroke="#111" stroke-width="3"/>
  <text x="554" y="227" text-anchor="end" font-family="ui-monospace, 'SF Mono', Menlo, monospace" font-size="30" font-weight="900" letter-spacing="-1" fill="#111">25:00</text>
  <text x="314" y="221" font-family="ui-monospace, Menlo, monospace" font-size="12" font-weight="700" fill="#111" opacity="0.7">#4d96ff</text>
  <rect x="595" y="193" width="270" height="54" fill="#111"/>
  <rect x="590" y="188" width="270" height="54" fill="#abcdfd" stroke="#111" stroke-width="3"/>
  <text x="844" y="227" text-anchor="end" font-family="ui-monospace, 'SF Mono', Menlo, monospace" font-size="30" font-weight="900" letter-spacing="-1" fill="#111">5:00</text>
  <text x="604" y="221" font-family="ui-monospace, Menlo, monospace" font-size="12" font-weight="700" fill="#111" opacity="0.7">#abcdfd</text>
  <rect x="885" y="193" width="280" height="54" fill="#111"/>
  <rect x="880" y="188" width="280" height="54" fill="#cde0fb" stroke="#111" stroke-width="3"/>
  <text x="1144" y="227" text-anchor="end" font-family="ui-monospace, 'SF Mono', Menlo, monospace" font-size="30" font-weight="900" letter-spacing="-1" fill="#111">15:00</text>
  <text x="894" y="221" font-family="ui-monospace, Menlo, monospace" font-size="12" font-weight="700" fill="#111" opacity="0.7">#cde0fb</text>
  <rect x="45" y="265" width="225" height="54" fill="#111"/>
  <rect x="40" y="260" width="225" height="54" fill="#ff8a3d" stroke="#111" stroke-width="3"/>
  <text x="56" y="295" font-size="22">🏃</text>
  <text x="92" y="294" font-size="19" font-weight="900" fill="#111">Exercise</text>
  <rect x="305" y="265" width="270" height="54" fill="#111"/>
  <rect x="300" y="260" width="270" height="54" fill="#ff8a3d" stroke="#111" stroke-width="3"/>
  <text x="554" y="299" text-anchor="end" font-family="ui-monospace, 'SF Mono', Menlo, monospace" font-size="30" font-weight="900" letter-spacing="-1" fill="#111">25:00</text>
  <text x="314" y="293" font-family="ui-monospace, Menlo, monospace" font-size="12" font-weight="700" fill="#111" opacity="0.7">#ff8a3d</text>
  <rect x="595" y="265" width="270" height="54" fill="#111"/>
  <rect x="590" y="260" width="270" height="54" fill="#f7c0a2" stroke="#111" stroke-width="3"/>
  <text x="844" y="299" text-anchor="end" font-family="ui-monospace, 'SF Mono', Menlo, monospace" font-size="30" font-weight="900" letter-spacing="-1" fill="#111">5:00</text>
  <text x="604" y="293" font-family="ui-monospace, Menlo, monospace" font-size="12" font-weight="700" fill="#111" opacity="0.7">#f7c0a2</text>
  <rect x="885" y="265" width="280" height="54" fill="#111"/>
  <rect x="880" y="260" width="280" height="54" fill="#f6d7c6" stroke="#111" stroke-width="3"/>
  <text x="1144" y="299" text-anchor="end" font-family="ui-monospace, 'SF Mono', Menlo, monospace" font-size="30" font-weight="900" letter-spacing="-1" fill="#111">15:00</text>
  <text x="894" y="293" font-family="ui-monospace, Menlo, monospace" font-size="12" font-weight="700" fill="#111" opacity="0.7">#f6d7c6</text>
  <rect x="45" y="337" width="225" height="54" fill="#111"/>
  <rect x="40" y="332" width="225" height="54" fill="#1f3a93" stroke="#111" stroke-width="3"/>
  <text x="56" y="367" font-size="22">💼</text>
  <text x="92" y="366" font-size="19" font-weight="900" fill="#fff">Client X</text>
  <rect x="305" y="337" width="270" height="54" fill="#111"/>
  <rect x="300" y="332" width="270" height="54" fill="#1f3a93" stroke="#111" stroke-width="3"/>
  <text x="554" y="371" text-anchor="end" font-family="ui-monospace, 'SF Mono', Menlo, monospace" font-size="30" font-weight="900" letter-spacing="-1" fill="#fff">25:00</text>
  <text x="314" y="365" font-family="ui-monospace, Menlo, monospace" font-size="12" font-weight="700" fill="#fff" opacity="0.7">#1f3a93</text>
  <rect x="595" y="337" width="270" height="54" fill="#111"/>
  <rect x="590" y="332" width="270" height="54" fill="#b6caf8" stroke="#111" stroke-width="3"/>
  <text x="844" y="371" text-anchor="end" font-family="ui-monospace, 'SF Mono', Menlo, monospace" font-size="30" font-weight="900" letter-spacing="-1" fill="#111">5:00</text>
  <text x="604" y="365" font-family="ui-monospace, Menlo, monospace" font-size="12" font-weight="700" fill="#111" opacity="0.7">#b6caf8</text>
  <rect x="885" y="337" width="280" height="54" fill="#111"/>
  <rect x="880" y="332" width="280" height="54" fill="#d2def8" stroke="#111" stroke-width="3"/>
  <text x="1144" y="371" text-anchor="end" font-family="ui-monospace, 'SF Mono', Menlo, monospace" font-size="30" font-weight="900" letter-spacing="-1" fill="#111">15:00</text>
  <text x="894" y="365" font-family="ui-monospace, Menlo, monospace" font-size="12" font-weight="700" fill="#111" opacity="0.7">#d2def8</text>
  <text x="40" y="426" font-size="16" font-weight="800" fill="#111">Same hue, calmer breaks: tones are worked out in OKLCH from the tag colour, and text flips to white on dark tags.</text>
</svg>
